<svg width="3988" height="2780" viewBox="0 0 3988 2780" fill="none" xmlns="http://www.w3.org/2000/svg">
<path d="M1322.19 2516.93L694.316 7.85762L694.316 1905.36C694.316 2020.39 648.729 2130.73 567.558 2212.17L1.54684 2780L-0.00048607 2780L-0.000153331 876.952C-0.000133235 762.017 45.5072 651.767 126.554 570.351L692.745 1.57856L692.35 0.000121054L1039.44 0.000181741C1238.13 0.000216482 1411.45 135.085 1460.15 327.912L2079.44 2780L1658.94 2780C1499.7 2780 1360.88 2671.56 1322.19 2516.93Z" fill="black"/>
<path d="M3977.4 2039.78C4007.59 2159.28 3972.26 2285.85 3884.57 2372.39L3471.58 2780L2777.27 0.000485592L3124.35 0.000546279C3323.05 0.00058102 3496.36 135.086 3545.06 327.913L3977.4 2039.78Z" fill="black"/>
<path d="M2209.5 570.351L2777.27 0.000485592L2777.27 1905.36C2777.26 2020.39 2731.68 2130.73 2650.51 2212.17L2084.5 2780L2082.95 2780L2082.95 876.953C2082.95 762.018 2128.46 651.768 2209.5 570.351Z" fill="black"/>
</svg>
