<svg width="20" height="15" viewBox="0 0 20 15" fill="none" xmlns="http://www.w3.org/2000/svg">
<path id="&#226;&#128;&#156;" d="M4.74596 14.4181C3.30415 14.4181 2.14269 13.8374 1.26158 12.6759C0.420528 11.4744 0 10.0126 0 8.29041C0 5.72719 0.74093 3.72468 2.22279 2.28287C3.7447 0.841055 5.82732 0.0800996 8.47064 0V2.82355C6.70843 2.8636 5.42682 3.36423 4.62581 4.32543C3.8248 5.28664 3.4243 6.38802 3.4243 7.62958C3.4243 7.99004 3.44433 8.25036 3.48438 8.41056C3.96498 7.92996 4.64584 7.68966 5.52694 7.68966C6.48815 7.68966 7.24911 7.97001 7.80981 8.53072C8.41057 9.09142 8.71094 9.89243 8.71094 10.9337C8.71094 11.935 8.35049 12.776 7.62958 13.4569C6.94873 14.0977 5.98752 14.4181 4.74596 14.4181ZM15.139 14.4181C13.6972 14.4181 12.5357 13.8374 11.6546 12.6759C10.8136 11.4744 10.3931 10.0126 10.3931 8.29041C10.3931 5.72719 11.134 3.72468 12.6158 2.28287C14.1378 0.841055 16.2204 0.0800996 18.8637 0V2.82355C17.1015 2.8636 15.8199 3.36423 15.0189 4.32543C14.2179 5.28664 13.8174 6.38802 13.8174 7.62958C13.8174 7.99004 13.8374 8.25036 13.8774 8.41056C14.358 7.92996 15.0389 7.68966 15.92 7.68966C16.8812 7.68966 17.6422 7.97001 18.2029 8.53072C18.8036 9.09142 19.104 9.89243 19.104 10.9337C19.104 11.935 18.7435 12.776 18.0226 13.4569C17.3418 14.0977 16.3806 14.4181 15.139 14.4181Z" fill="#0E0E11"/>
</svg>
