<?xml version="1.0" encoding="UTF-8"?> <svg xmlns="http://www.w3.org/2000/svg" width="15" height="15" viewBox="0 0 15 15" fill="none"><rect width="15" height="15" rx="3.158" fill="#fff"></rect><path d="M5.658 9.737h3.684a.263.263 0 0 0 .263-.263V6.842a.263.263 0 0 0-.263-.263H5.658a.263.263 0 0 0-.263.263v2.632c0 .145.117.263.263.263ZM6.77 6.579h1.458a.06.06 0 0 0 .06-.06v-.73a.79.79 0 0 0-1.578 0v.73c0 .033.027.06.06.06Z" stroke="#4D6DD9" stroke-width=".526" stroke-linecap="round" stroke-linejoin="round"></path></svg> 