<?xml version="1.0" encoding="UTF-8"?> <svg xmlns="http://www.w3.org/2000/svg" width="15" height="16" viewBox="0 0 15 16" fill="none"><rect y="0.210449" width="15" height="15" rx="3.15789" fill="white"></rect><g clip-path="url(#clip0_4872_613)"><path d="M8.68408 9.68406C8.68408 9.53872 8.8019 9.4209 8.94724 9.4209C9.09258 9.4209 9.2104 9.53872 9.2104 9.68406C9.2104 9.82939 9.09258 9.94721 8.94724 9.94721C8.8019 9.94721 8.68408 9.82939 8.68408 9.68406Z" stroke="black" stroke-width="0.526316" stroke-linecap="round" stroke-linejoin="round"></path><path d="M6.05273 9.68406C6.05273 9.53872 6.17055 9.4209 6.31589 9.4209C6.46123 9.4209 6.57905 9.53872 6.57905 9.68406C6.57905 9.82939 6.46123 9.94721 6.31589 9.94721C6.17055 9.94721 6.05273 9.82939 6.05273 9.68406Z" stroke="black" stroke-width="0.526316" stroke-linecap="round" stroke-linejoin="round"></path><path d="M5 5.21045H5.20203C5.32894 5.21045 5.43777 5.30103 5.46082 5.42583L6.05263 8.6315" stroke="black" stroke-width="0.526316" stroke-linecap="round" stroke-linejoin="round"></path><path d="M5.65771 6H9.40586C9.57509 6 9.70033 6.15743 9.66228 6.32233L9.17645 8.42759C9.14889 8.547 9.04257 8.63158 8.92003 8.63158H6.05245" stroke="black" stroke-width="0.526316" stroke-linecap="round" stroke-linejoin="round"></path></g><defs><clipPath id="clip0_4872_613"><rect width="6.31579" height="6.31579" fill="white" transform="translate(4.21045 4.4209)"></rect></clipPath></defs></svg> 