<?xml version="1.0" encoding="UTF-8"?> <svg xmlns="http://www.w3.org/2000/svg" width="15" height="16" viewBox="0 0 15 16" fill="none"><rect y="0.579102" width="15" height="15" rx="3.15789" fill="white"></rect><g clip-path="url(#clip0_4872_604)"><path d="M4.73682 10.0527H9.99997" stroke="#0E0E11" stroke-width="0.526316" stroke-linecap="round" stroke-linejoin="round"></path><path d="M7.36816 10.0526H9.21027C9.35561 10.0526 9.47343 9.93482 9.47343 9.78949V8.3124C9.47343 8.23772 9.44169 8.16655 9.38614 8.11664L8.20193 7.05275C8.1019 6.96289 7.95022 6.96289 7.85019 7.05275L7.36816 7.4858" stroke="#0E0E11" stroke-width="0.526316" stroke-linecap="round" stroke-linejoin="round"></path><path d="M7.10529 5.84229H5.52634C5.381 5.84229 5.26318 5.9601 5.26318 6.10544V9.78965C5.26318 9.93499 5.381 10.0528 5.52634 10.0528H7.36845V6.10544C7.36845 5.9601 7.25063 5.84229 7.10529 5.84229Z" stroke="#0E0E11" stroke-width="0.526316" stroke-linecap="round" stroke-linejoin="round"></path></g><defs><clipPath id="clip0_4872_604"><rect width="6.31579" height="6.31579" fill="white" transform="translate(4.21045 4.78955)"></rect></clipPath></defs></svg> 