<?xml version="1.0" encoding="UTF-8"?> <svg xmlns="http://www.w3.org/2000/svg" width="15" height="16" viewBox="0 0 15 16" fill="none"><rect y="0.0527344" width="15" height="15" rx="3.15789" fill="white"></rect><g clip-path="url(#clip0_4872_621)"><path d="M4.86865 9.78955H10.1318" stroke="black" stroke-width="0.526316" stroke-linecap="round" stroke-linejoin="round"></path><path d="M9.51839 7.85346L8.33418 6.78957C8.23415 6.6997 8.08246 6.6997 7.98244 6.78957L6.79823 7.85346C6.74267 7.90337 6.71094 7.97453 6.71094 8.04922V9.78946H9.34252C9.48785 9.78946 9.60567 9.67164 9.60567 9.5263V8.04922C9.60567 7.97453 9.57394 7.90337 9.51839 7.85346Z" stroke="black" stroke-width="0.526316" stroke-linecap="round" stroke-linejoin="round"></path><path d="M6.71081 9.78963H5.65818C5.51284 9.78963 5.39502 9.67181 5.39502 9.52647V5.84226C5.39502 5.69692 5.51284 5.5791 5.65818 5.5791H7.23712C7.38246 5.5791 7.50028 5.69692 7.50028 5.84226V7.15805" stroke="black" stroke-width="0.526316" stroke-linecap="round" stroke-linejoin="round"></path></g><defs><clipPath id="clip0_4872_621"><rect width="6.31579" height="6.31579" fill="white" transform="translate(4.34229 4.52637)"></rect></clipPath></defs></svg> 