<?xml version="1.0" encoding="UTF-8"?> <svg xmlns="http://www.w3.org/2000/svg" width="15" height="15" viewBox="0 0 15 15" fill="none"><rect width="15" height="15" rx="3.15789" fill="white"></rect><path d="M4.21053 10H10.5263" stroke="black" stroke-width="0.526316" stroke-linecap="round" stroke-linejoin="round"></path><path d="M9.63574 6.9112L7.56337 5.07421C7.45175 4.97526 7.28509 4.97526 7.17347 5.07421L5.1011 6.9112C5.03685 6.96815 5 7.05043 5 7.13691V9.70008C5 9.86572 5.13255 10 5.29605 10H9.44079C9.6043 10 9.73684 9.86572 9.73684 9.70008V7.13691C9.73684 7.05043 9.69999 6.96815 9.63574 6.9112Z" stroke="black" stroke-width="0.526316" stroke-linecap="round" stroke-linejoin="round"></path><path d="M7.19298 8.6842H7.54386C7.59231 8.6842 7.63158 8.64493 7.63158 8.59648V8.15789H8.07018C8.11862 8.15789 8.1579 8.11861 8.1579 8.07017V7.71929C8.1579 7.67084 8.11862 7.63157 8.07018 7.63157L7.63158 7.63157V7.19297C7.63158 7.14453 7.59231 7.10526 7.54386 7.10526H7.19298C7.14454 7.10526 7.10526 7.14453 7.10526 7.19297L7.10526 7.63157L6.66667 7.63157C6.61822 7.63157 6.57895 7.67084 6.57895 7.71929V8.07017C6.57895 8.11861 6.61822 8.15789 6.66667 8.15789L7.10526 8.15789L7.10526 8.59648C7.10526 8.64493 7.14454 8.6842 7.19298 8.6842Z" fill="black"></path></svg> 